# xmcd
#
# Track frame offsets:
#	150
#	16312
#	30866
#	45935
#	59254
#	74785
#
# Disc length: 1185 seconds
#
# Revision: 1
# Processed by: cddbd v1.5.2PL0 Copyright (c) Steve Scherf et al.
# Submitted via: audiograbber 1.83.01
#
DISCID=44049f06
DTITLE=Various Artist - CDX 672
DYEAR=2019
DGENRE=Country
TTITLE0=Travis Denning - After A Few
TTITLE1=Kane Brown - Good As You
TTITLE2=Aaron Watson - Kiss That Girl Goodbye
TTITLE3=Chris Young - Raised On Country
TTITLE4=Corinne Cook - One Box Of Tissues
TTITLE5=Mags - Run
EXTD=
EXTT0=
EXTT1=
EXTT2=
EXTT3=
EXTT4=
EXTT5=
PLAYORDER=
